<?xml version="1.0" encoding="iso-8859-1"?>
<!-- Generator: Adobe Illustrator 16.0.0, SVG Export Plug-In . SVG Version: 6.00 Build 0)  -->
<!DOCTYPE svg PUBLIC "-//W3C//DTD SVG 1.1//EN" "http://www.w3.org/Graphics/SVG/1.1/DTD/svg11.dtd">
<svg version="1.1" id="Capa_1" xmlns="http://www.w3.org/2000/svg" xmlns:xlink="http://www.w3.org/1999/xlink" x="0px" y="0px"
	 width="612px" height="612px" viewBox="0 0 612 612" style="enable-background:new 0 0 612 612;" xml:space="preserve">
<g>
	<g>
		<path d="M41.19,612H612v-41.19H41.19V500.53h23.696c9.051,0,16.395-7.34,16.395-16.396c0-9.051-7.339-16.395-16.395-16.395H41.19
			v-73.22h23.696c9.051,0,16.395-7.34,16.395-16.396c0-9.051-7.339-16.395-16.395-16.395H41.19v-73.215h23.696
			c9.051,0,16.395-7.339,16.395-16.395c0-9.051-7.339-16.395-16.395-16.395H41.19v-73.22h23.696c9.051,0,16.395-7.339,16.395-16.395
			s-7.339-16.395-16.395-16.395H41.19V76.5h23.696c9.056,0,16.395-7.339,16.395-16.395S73.942,43.71,64.886,43.71H41.19V0H0v570.81
			V612l0,0H41.19L41.19,612z"/>
		<polygon points="215.41,535.5 215.41,376.896 138.91,429.337 138.91,535.5 		"/>
		<polygon points="341.09,535.5 341.09,290.748 264.59,343.188 264.59,535.5 		"/>
		<polygon points="466.765,535.5 466.765,204.599 390.265,257.035 390.265,535.5 		"/>
		<polygon points="513.77,535.5 592.66,535.5 592.66,124.312 513.77,176.906 		"/>
		<polygon points="521.156,129.094 573.75,0 425.531,4.781 463.781,57.375 129.094,282.094 129.094,327.037 485.723,84.576 		"/>
	</g>
</g>
<g>
</g>
<g>
</g>
<g>
</g>
<g>
</g>
<g>
</g>
<g>
</g>
<g>
</g>
<g>
</g>
<g>
</g>
<g>
</g>
<g>
</g>
<g>
</g>
<g>
</g>
<g>
</g>
<g>
</g>
</svg>
